<svg id="wave" preserveAspectRatio="xMinYMin meet" viewBox="300 0 10 490" version="1.1" xmlns="http://www.w3.org/2000/svg">
    <defs>
        <linearGradient id="sw-gradient-0" x1="0" x2="0" y1="1" y2="0">
            <stop stop-color="rgba(243, 106, 62, 1)" offset="0%"></stop>
            <stop stop-color="rgba(255, 179, 11, 1)" offset="100%"></stop>
        </linearGradient>
    </defs>
    <path fill="url(#sw-gradient-0)"
          d="M0,147L40,196C80,245,160,343,240,318.5C320,294,400,147,480,147C560,147,640,294,720,302.2C800,310,880,180,960,155.2C1040,131,1120,212,1200,245C1280,278,1360,261,1440,269.5C1520,278,1600,310,1680,334.8C1760,359,1840,376,1920,326.7C2000,278,2080,163,2160,122.5C2240,82,2320,114,2400,155.2C2480,196,2560,245,2640,253.2C2720,261,2800,229,2880,212.3C2960,196,3040,196,3120,196C3200,196,3280,196,3360,204.2C3440,212,3520,229,3600,236.8C3680,245,3760,245,3840,204.2C3920,163,4000,82,4080,98C4160,114,4240,229,4320,228.7C4400,229,4480,114,4560,57.2C4640,0,4720,0,4800,24.5C4880,49,4960,98,5040,163.3C5120,229,5200,310,5280,285.8C5360,261,5440,131,5520,106.2C5600,82,5680,163,5720,204.2L5760,245L5760,490L5720,490C5680,490,5600,490,5520,490C5440,490,5360,490,5280,490C5200,490,5120,490,5040,490C4960,490,4880,490,4800,490C4720,490,4640,490,4560,490C4480,490,4400,490,4320,490C4240,490,4160,490,4080,490C4000,490,3920,490,3840,490C3760,490,3680,490,3600,490C3520,490,3440,490,3360,490C3280,490,3200,490,3120,490C3040,490,2960,490,2880,490C2800,490,2720,490,2640,490C2560,490,2480,490,2400,490C2320,490,2240,490,2160,490C2080,490,2000,490,1920,490C1840,490,1760,490,1680,490C1600,490,1520,490,1440,490C1360,490,1280,490,1200,490C1120,490,1040,490,960,490C880,490,800,490,720,490C640,490,560,490,480,490C400,490,320,490,240,490C160,490,80,490,40,490L0,490Z"></path>
    <defs>
        <linearGradient id="sw-gradient-1" x1="0" x2="0" y1="1" y2="0">
            <stop stop-color="rgba(243, 106, 62, 1)" offset="0%"></stop>
            <stop stop-color="rgba(255, 179, 11, 1)" offset="100%"></stop>
        </linearGradient>
    </defs>
    <path fill="url(#sw-gradient-1)"
          d="M0,294L40,310.3C80,327,160,359,240,326.7C320,294,400,196,480,196C560,196,640,294,720,334.8C800,376,880,359,960,302.2C1040,245,1120,147,1200,130.7C1280,114,1360,180,1440,179.7C1520,180,1600,114,1680,122.5C1760,131,1840,212,1920,245C2000,278,2080,261,2160,236.8C2240,212,2320,180,2400,212.3C2480,245,2560,343,2640,318.5C2720,294,2800,147,2880,81.7C2960,16,3040,33,3120,89.8C3200,147,3280,245,3360,294C3440,343,3520,343,3600,294C3680,245,3760,147,3840,89.8C3920,33,4000,16,4080,16.3C4160,16,4240,33,4320,40.8C4400,49,4480,49,4560,65.3C4640,82,4720,114,4800,122.5C4880,131,4960,114,5040,98C5120,82,5200,65,5280,73.5C5360,82,5440,114,5520,114.3C5600,114,5680,82,5720,65.3L5760,49L5760,490L5720,490C5680,490,5600,490,5520,490C5440,490,5360,490,5280,490C5200,490,5120,490,5040,490C4960,490,4880,490,4800,490C4720,490,4640,490,4560,490C4480,490,4400,490,4320,490C4240,490,4160,490,4080,490C4000,490,3920,490,3840,490C3760,490,3680,490,3600,490C3520,490,3440,490,3360,490C3280,490,3200,490,3120,490C3040,490,2960,490,2880,490C2800,490,2720,490,2640,490C2560,490,2480,490,2400,490C2320,490,2240,490,2160,490C2080,490,2000,490,1920,490C1840,490,1760,490,1680,490C1600,490,1520,490,1440,490C1360,490,1280,490,1200,490C1120,490,1040,490,960,490C880,490,800,490,720,490C640,490,560,490,480,490C400,490,320,490,240,490C160,490,80,490,40,490L0,490Z"></path>
</svg>

